<?xml version="1.0" encoding="UTF-8"?>
<svg id="Capa_1" data-name="Capa 1" xmlns="http://www.w3.org/2000/svg" viewBox="0 0 193.61 193.61">
  <defs>
    <style>
      .cls-1 {
        fill: #fff;
      }

      .cls-2 {
        fill: #e85220;
      }
    </style>
  </defs>
  <rect class="cls-1" x="-10" y="-10" width="213.61" height="213.61"/>
  <g>
    <path class="cls-2" d="m118.14,160c-7.24,0-14.48-1.87-20.94-5.6-12.92-7.46-20.94-21.37-20.94-36.29v-51.09c0-.85.45-1.63,1.19-2.05,25.1-14.51,56.3-14.51,81.4,0,.73.42,1.19,1.21,1.19,2.05v51.09c0,14.93-8.03,28.83-20.94,36.29h0c-6.46,3.73-13.7,5.6-20.94,5.6Zm-37.14-91.59v49.7c0,13.24,7.12,25.57,18.57,32.18,11.46,6.62,25.68,6.62,37.14,0h0c11.45-6.62,18.57-18.95,18.57-32.18v-49.7c-23.03-12.76-51.24-12.76-74.28,0Z"/>
    <path class="cls-2" d="m77.86,131.35c-7.13,0-16.49-1.66-23.33-5.61-12.92-7.46-20.94-21.37-20.94-36.29v-53.46c0-.85.45-1.63,1.19-2.05.73-.42,1.64-.42,2.37,0,23.64,13.66,53.01,13.66,76.65,0,.73-.42,1.64-.42,2.37,0,.73.42,1.19,1.21,1.19,2.05v20.45s-4.74,0-4.74,0v-16.46c-23.25,11.92-51.03,11.92-74.28,0v49.47c0,13.24,7.12,25.57,18.57,32.18,6.8,3.93,16.5,5.3,23.09,4.92l.28,4.74c-.77.04-1.57.07-2.41.07Z"/>
    <path class="cls-2" d="m57.69,81.72c-2.25,0-4.51-.58-6.52-1.74-4.02-2.32-6.52-6.65-6.52-11.3,0-1.31,1.06-2.37,2.37-2.37h21.34c1.31,0,2.37,1.06,2.37,2.37,0,4.64-2.5,8.97-6.52,11.3-2.01,1.16-4.27,1.74-6.52,1.74Zm-7.95-10.67c.6,2,1.95,3.74,3.8,4.82,2.56,1.48,5.74,1.48,8.3,0,1.85-1.07,3.2-2.81,3.8-4.82h-15.89Z"/>
    <path class="cls-2" d="m76.26,110.6h-17.39c-1.31,0-2.37-1.06-2.37-2.37,0-6.76,3.63-13.06,9.48-16.44,3.16-1.82,6.75-2.69,10.39-2.51l-.23,4.74c-2.73-.13-5.42.52-7.79,1.88-3.69,2.13-6.21,5.82-6.91,9.96h14.81s0,4.74,0,4.74Z"/>
    <path class="cls-2" d="m146.59,97.35h-21.34c-1.31,0-2.37-1.06-2.37-2.37,0-7.19,5.85-13.05,13.04-13.05,7.19,0,13.04,5.85,13.04,13.05,0,1.31-1.06,2.37-2.37,2.37Zm-18.62-4.74h15.9c-1.02-3.43-4.2-5.93-7.95-5.93s-6.93,2.5-7.95,5.93Z"/>
    <path class="cls-2" d="m111.03,97.35h-21.34c-1.31,0-2.37-1.06-2.37-2.37,0-7.19,5.85-13.05,13.04-13.05,7.19,0,13.04,5.85,13.04,13.05,0,1.31-1.06,2.37-2.37,2.37Zm-18.62-4.74h15.9c-1.02-3.43-4.2-5.93-7.95-5.93s-6.93,2.5-7.95,5.93Z"/>
    <path class="cls-2" d="m118.14,138.06c-3.69,0-7.38-.95-10.67-2.85-6.58-3.8-10.67-10.88-10.67-18.49,0-1.31,1.06-2.37,2.37-2.37h37.93c1.31,0,2.37,1.06,2.37,2.37,0,7.6-4.09,14.69-10.67,18.49-3.29,1.9-6.98,2.85-10.67,2.85Zm-16.42-18.97c.72,4.99,3.7,9.45,8.13,12.01,5.12,2.96,11.47,2.96,16.59,0,4.43-2.56,7.4-7.02,8.13-12.01h-32.84Z"/>
  </g>
</svg>