<svg width="21" height="20" viewBox="0 0 21 20" fill="none" xmlns="http://www.w3.org/2000/svg">
<path d="M10.4991 6.14746C9.42606 6.14746 8.39694 6.55344 7.63817 7.27608C6.8794 7.99872 6.45313 8.97883 6.45313 10.0008C6.45313 11.0228 6.8794 12.0029 7.63817 12.7255C8.39694 13.4482 9.42606 13.8541 10.4991 13.8541C11.5722 13.8541 12.6013 13.4482 13.3601 12.7255C14.1189 12.0029 14.5451 11.0228 14.5451 10.0008C14.5451 8.97883 14.1189 7.99872 13.3601 7.27608C12.6013 6.55344 11.5722 6.14746 10.4991 6.14746V6.14746ZM10.4991 12.5033C9.802 12.5033 9.13343 12.2396 8.6405 11.7701C8.14756 11.3006 7.87063 10.6639 7.87063 9.99996C7.87063 9.33604 8.14756 8.6993 8.64049 8.22984C9.13343 7.76037 9.802 7.49663 10.4991 7.49663C11.1962 7.49663 11.8648 7.76037 12.3578 8.22984C12.8507 8.6993 13.1276 9.33604 13.1276 9.99996C13.1276 10.6639 12.8507 11.3006 12.3578 11.7701C11.8648 12.2395 11.1962 12.5033 10.4991 12.5033V12.5033Z" fill="#E9EFF2"/>
<path d="M14.7052 6.90409C15.2262 6.90409 15.6485 6.50189 15.6485 6.00575C15.6485 5.50962 15.2262 5.10742 14.7052 5.10742C14.1843 5.10742 13.762 5.50962 13.762 6.00575C13.762 6.50189 14.1843 6.90409 14.7052 6.90409Z" fill="#E9EFF2"/>
<path d="M17.9663 5.09273C17.7638 4.59454 17.4542 4.14213 17.0575 3.76444C16.6608 3.38676 16.1856 3.09212 15.6625 2.89939C15.0503 2.68052 14.4035 2.56218 13.7497 2.54939C12.9071 2.51439 12.6402 2.50439 10.5035 2.50439C8.36671 2.50439 8.09283 2.50439 7.25721 2.54939C6.60392 2.56152 5.95762 2.6799 5.34621 2.89939C4.8229 3.0919 4.34763 3.38645 3.95088 3.76417C3.55412 4.14188 3.24466 4.59441 3.04233 5.09273C2.81248 5.67574 2.6885 6.29176 2.67571 6.91439C2.63808 7.71606 2.62671 7.97023 2.62671 10.0061C2.62671 12.0411 2.62671 12.3002 2.67571 13.0977C2.68883 13.7211 2.81221 14.3361 3.04233 14.9202C3.24523 15.4184 3.55499 15.8707 3.95184 16.2484C4.34869 16.626 4.82389 16.9207 5.34708 17.1136C5.95734 17.3412 6.60391 17.468 7.25896 17.4886C8.10158 17.5236 8.36846 17.5344 10.5052 17.5344C12.642 17.5344 12.9158 17.5344 13.7515 17.4886C14.4052 17.4759 15.0519 17.3578 15.6642 17.1394C16.1872 16.9462 16.6623 16.6513 17.0589 16.2735C17.4556 15.8957 17.7652 15.4434 17.9681 14.9452C18.1982 14.3619 18.3216 13.7469 18.3347 13.1236C18.3723 12.3219 18.3837 12.0677 18.3837 10.0319C18.3837 7.99606 18.3837 7.73773 18.3347 6.94023C18.3245 6.30879 18.1999 5.68377 17.9663 5.09273V5.09273ZM16.9006 13.0361C16.8949 13.5163 16.8029 13.9921 16.6285 14.4427C16.4971 14.7668 16.2959 15.0611 16.0379 15.3066C15.7799 15.5522 15.4708 15.7436 15.1305 15.8686C14.6625 16.0339 14.1683 16.1216 13.6692 16.1277C12.838 16.1644 12.6035 16.1736 10.472 16.1736C8.33871 16.1736 8.12083 16.1736 7.27383 16.1277C6.77502 16.1219 6.28099 16.0342 5.81346 15.8686C5.47194 15.7444 5.16159 15.5533 4.90249 15.3077C4.64339 15.0621 4.44132 14.7674 4.30933 14.4427C4.13735 13.9969 4.04536 13.5268 4.03721 13.0519C3.99958 12.2602 3.99083 12.0369 3.99083 10.0069C3.99083 7.97606 3.99083 7.76856 4.03721 6.96106C4.04286 6.48108 4.13491 6.00558 4.30933 5.55523C4.57621 4.89773 5.12308 4.38023 5.81346 4.12856C6.28122 3.96368 6.77511 3.87603 7.27383 3.86939C8.10596 3.83356 8.33958 3.82356 10.472 3.82356C12.6043 3.82356 12.8231 3.82356 13.6692 3.86939C14.1683 3.87511 14.6626 3.96279 15.1305 4.12856C15.4708 4.25379 15.7798 4.4454 16.0378 4.69109C16.2958 4.93678 16.497 5.23112 16.6285 5.55523C16.8004 6.00102 16.8924 6.47119 16.9006 6.94606C16.9382 7.73856 16.9478 7.96106 16.9478 9.99189C16.9478 12.0219 16.9478 12.2402 16.9102 13.0369L16.9006 13.0369L16.9006 13.0361Z" fill="#E9EFF2"/>
</svg>
