<svg width="20" height="20" viewBox="0 0 20 20" fill="none" xmlns="http://www.w3.org/2000/svg">
<path d="M10.0085 1.68262C5.42928 1.68262 1.68262 5.42928 1.68262 10.0085C1.68262 14.5868 5.42929 18.3335 10.0085 18.3334C14.5868 18.3334 18.3335 14.5868 18.3335 10.0085C18.3335 5.42928 14.6285 1.68262 10.0085 1.68262ZM13.8376 13.7126C13.6718 13.9618 13.3801 14.046 13.1293 13.8801C11.1718 12.6718 8.71595 12.4218 5.80178 13.0876C5.51178 13.1726 5.26178 12.9643 5.17845 12.7135C5.09428 12.4218 5.30262 12.1735 5.55345 12.0893C8.71595 11.381 11.4643 11.6735 13.6285 13.006C13.9201 13.1301 13.9618 13.4626 13.8376 13.7126ZM14.8376 11.4235C14.6285 11.7143 14.2543 11.8393 13.9618 11.631C11.7143 10.2593 8.30178 9.84095 5.67928 10.6743C5.34762 10.7585 4.97095 10.591 4.88845 10.2593C4.80428 9.92428 4.97178 9.54928 5.30428 9.46595C8.34262 8.55095 12.0901 9.00928 14.6701 10.5918C14.9201 10.716 15.0451 11.1318 14.8376 11.4235ZM14.9201 9.09095C12.256 7.51012 7.80178 7.34345 5.26178 8.13595C5.06862 8.19161 4.86144 8.17071 4.68329 8.0776C4.50513 7.98449 4.36969 7.82632 4.30512 7.63595C4.24847 7.44256 4.26878 7.23475 4.36181 7.05599C4.45485 6.87722 4.61339 6.74135 4.80428 6.67678C7.76012 5.80262 12.631 5.96845 15.7118 7.80262C16.086 8.01012 16.211 8.51012 16.0026 8.88428C15.7943 9.17595 15.2951 9.29928 14.9201 9.09095Z" fill="#E9EFF2"/>
</svg>
