<svg width="19" height="20" viewBox="0 0 19 20" fill="none" xmlns="http://www.w3.org/2000/svg">
<path d="M9.50084 1.66846C5.12925 1.66846 1.58496 5.39929 1.58496 10.001C1.58496 14.1593 4.47929 17.606 8.26425 18.2335L8.26425 12.4101L6.25342 12.4101L6.25342 10.001L8.26425 10.001L8.26425 8.16512C8.26425 6.07512 9.44621 4.92262 11.2536 4.92262C12.1197 4.92262 13.0269 5.08512 13.0269 5.08512L13.0269 7.13429L12.0263 7.13429C11.0446 7.13429 10.7374 7.77762 10.7374 8.43679L10.7374 9.99929L12.9311 9.99929L12.5804 12.4085L10.7374 12.4085L10.7374 18.2318C14.5224 17.6076 17.4167 14.1601 17.4167 10.001C17.4167 5.39929 13.8724 1.66846 9.50084 1.66846V1.66846Z" fill="#E9EFF2"/>
</svg>
