<svg width="21" height="20" viewBox="0 0 21 20" fill="none" xmlns="http://www.w3.org/2000/svg">
<path d="M17.1789 6.66412C17.1902 6.80995 17.1902 6.95495 17.1902 7.09995C17.1902 11.5375 13.6439 16.6508 7.16275 16.6508C5.166 16.6508 3.311 16.1 1.75 15.1433C2.0335 15.1741 2.3065 15.185 2.60138 15.185C4.18774 15.1886 5.72919 14.6834 6.97725 13.7508C6.24174 13.7381 5.52875 13.507 4.93783 13.0897C4.34691 12.6725 3.90756 12.0899 3.68113 11.4233C3.899 11.4541 4.11775 11.475 4.347 11.475C4.66288 11.475 4.9805 11.4333 5.27537 11.3608C4.47717 11.2073 3.75941 10.7952 3.24417 10.1947C2.72892 9.59414 2.44798 8.84216 2.44913 8.06662L2.44913 8.02495C2.919 8.27412 3.46413 8.42995 4.04163 8.45079C3.55783 8.14461 3.16113 7.72914 2.88692 7.24145C2.61271 6.75375 2.46952 6.209 2.47013 5.65579C2.47012 5.03245 2.64425 4.46079 2.94962 3.96245C3.83525 4.99997 4.93982 5.84876 6.19179 6.45384C7.44377 7.05892 8.81524 7.4068 10.2174 7.47495C10.1631 7.22495 10.1299 6.96579 10.1299 6.70579C10.1296 6.26492 10.2207 5.82834 10.3977 5.42099C10.5747 5.01364 10.8343 4.64352 11.1617 4.33178C11.489 4.02004 11.8776 3.7728 12.3053 3.60419C12.7331 3.43558 13.1915 3.3489 13.6544 3.34912C14.6694 3.34912 15.5855 3.75412 16.2295 4.40912C17.0185 4.2638 17.7752 3.98947 18.466 3.59829C18.203 4.37397 17.652 5.03171 16.9164 5.44829C17.6162 5.37227 18.3001 5.197 18.9455 4.92829C18.4635 5.59754 17.8662 6.18441 17.1789 6.66412V6.66412Z" fill="#E9EFF2"/>
</svg>
